<svg t="1710723418938" class="icon" viewBox="0 0 1024 1024" version="1.1" xmlns="http://www.w3.org/2000/svg" p-id="1108" width="200" height="200"><path d="M234.496 213.504h554.496c42.496 0 64 21.504 64 64s-21.504 64-64 64H234.496c-42.496 0-64-21.504-64-64 0-43.008 21.504-64 64-64z" fill="#3699FF" p-id="1109"></path><path d="M234.496 640h554.496c35.328 0 64 28.672 64 64S824.32 768 788.992 768H234.496c-35.328 0-64-28.672-64-64S199.168 640 234.496 640z m0-213.504h298.496c35.328 0 64 28.672 64 64s-28.672 64-64 64H234.496c-35.328 0-64-28.672-64-64s28.672-64 64-64z" fill="#3699FF" opacity=".3" p-id="1110"></path></svg>