<svg t="1710722873925" class="icon" viewBox="0 0 1024 1024" version="1.1" xmlns="http://www.w3.org/2000/svg" p-id="3507" width="200" height="200"><path d="M512 512m-400.695652 0a400.695652 400.695652 0 1 0 801.391304 0 400.695652 400.695652 0 1 0-801.391304 0Z" fill="#0B77E3" fill-opacity=".2" p-id="3508"></path><path d="M445.217391 572.838957h88.631652c0.445217-0.033391 0.834783 0 1.235479 0 7.980522 0 14.436174-6.121739 14.436174-13.657044 0-1.758609-0.356174-3.428174-1.001739-4.975304a39.15687 39.15687 0 0 1-3.205566-15.293218c0-21.014261 17.997913-38.043826 40.203131-38.043826s40.20313 17.029565 40.20313 38.043826a36.118261 36.118261 0 0 1-3.517217 15.515826c-0.200348 0.445217-0.400696 0.868174-0.623305 1.291131-0.122435 1.224348-0.289391 2.326261-0.289391 3.450435 0 7.546435 6.455652 13.668174 14.436174 13.668174h91.046957v242.621217c0 20.368696-17.608348 37.008696-39.123479 37.008696H445.484522L445.217391 572.838957z" fill="#FFFFFF" p-id="3509"></path><path d="M445.506783 857.043478l-0.022261-11.119304c-0.189217-143.270957-0.289391-234.74087-0.267131-274.432v-11.130435h99.951305c1.892174 0 3.138783-1.179826 3.138782-2.270609a4.552348 4.552348 0 0 0-0.445217-1.424695c-2.448696-7.501913-3.717565-13.534609-3.717565-18.476522 0-26.913391 22.928696-48.450783 50.866087-48.450783 27.937391 0 50.866087 21.537391 50.866087 48.461913 0 6.38887-1.324522 12.621913-4.185044 19.17774-0.189217 1.814261 1.090783 2.982957 3.606261 2.982956H745.73913v249.232696C745.73913 835.873391 723.21113 857.043478 695.952696 857.043478H445.506783z m250.434782-22.260869C711.223652 834.782609 723.478261 823.262609 723.478261 809.594435V582.622609h-78.180174c-14.358261 0-26.056348-10.640696-26.056348-24.531479 0-2.05913 0.278261-4.073739 1.090783-7.012173a31.053913 31.053913 0 0 1 1.268869-3.272348c1.335652-3.06087 2.003478-6.288696 2.003479-9.605566 0-14.313739-12.644174-26.201043-28.605218-26.201043-15.938783 0-28.594087 11.887304-28.594087 26.201043 0 2.114783 0.845913 6.088348 2.326261 10.72974 1.202087 2.893913 1.836522 5.988174 1.836522 9.160347 0 13.712696-11.52 24.531478-25.399652 24.531479H467.478261c0 43.063652 0.089043 127.109565 0.256 252.16h228.218435z" fill="#005CB9" p-id="3510"></path><path d="M278.694957 603.503304c0 22.205217 16.717913 40.20313 37.331478 40.203131s37.331478-17.997913 37.331478-40.203131c0-5.687652-1.113043-11.097043-3.094261-16.005565l0.111305-0.155826a15.34887 15.34887 0 0 1-0.934957-5.253565c0-7.969391 6.010435-14.436174 13.412174-14.436174 0.367304 0 0.734609 0.022261 1.101913 0.055652l0.044522-0.055652 88.509217 0.044522v88.631652l0.055652 0.044522a14.213565 14.213565 0 0 0-0.055652 1.190956c0 7.980522 5.999304 14.436174 13.401044 14.436174 1.725217 0 3.361391-0.356174 4.87513-1.001739l0.144696 0.111304c4.563478-2.125913 9.583304-3.31687 14.870261-3.316869 20.613565 0 37.331478 17.997913 37.331478 40.20313s-16.717913 40.20313-37.331478 40.203131a34.882783 34.882783 0 0 1-15.237566-3.517218 26.390261 26.390261 0 0 1-1.257739-0.623304l-0.166956 0.155826a12.488348 12.488348 0 0 0-3.227826-0.445218c-7.401739 0-13.401043 6.455652-13.401044 14.436174 0 0.222609 0.022261 0.434087 0.033391 0.645566l-0.033391 0.033391v90.356869H214.405565C194.426435 849.252174 178.086957 831.643826 178.086957 810.128696V567.963826L268.777739 567.652174l0.022261 0.033391 0.601043-0.033391c7.401739 0 13.401043 6.455652 13.401044 14.436174a15.471304 15.471304 0 0 1-1.357913 6.310956 42.74087 42.74087 0 0 0-2.749217 15.104z" fill="#40A0FF" p-id="3511"></path><path d="M420.919652 388.808348a41.783652 41.783652 0 0 1 16.205913 3.261217 14.948174 14.948174 0 0 0 4.953044 0.845913c7.880348 0 14.269217-6.010435 14.269217-13.401043l-0.033391-0.601044 0.033391-0.033391-0.311652-90.679652H216.742957c-21.25913 0-38.656 16.339478-38.656 36.318609v238.10226h89.299478l0.022261 0.033392 0.634434-0.033392c7.880348 0 14.269217 5.999304 14.269218 13.401044 0 1.113043-0.155826 2.192696-0.434087 3.227826l0.144696 0.166956c-0.222609 0.411826-0.411826 0.834783-0.612174 1.25774a35.238957 35.238957 0 0 0-3.472696 15.237565c0 20.613565 17.786435 37.331478 39.735652 37.331478 21.926957 0 39.713391-16.717913 39.713391-37.331478a35.172174 35.172174 0 0 0-3.283478-14.870261l0.111305-0.144696a12.644174 12.644174 0 0 1-0.979479-4.87513c0-7.401739 6.377739-13.401043 14.258087-13.401044 0.400696 0 0.790261 0.022261 1.179826 0.055653l0.044522-0.055653h87.596522L456.347826 474.112l-0.055652-0.044522c0.033391-0.367304 0.055652-0.734609 0.055652-1.113043 0-7.401739-6.38887-13.401043-14.269217-13.401044-1.825391 0-3.57287 0.333913-5.186783 0.934957l-0.144696-0.111305a41.783652 41.783652 0 0 1-15.827478 3.083131c-21.938087 0-39.735652-16.706783-39.735652-37.320348 0-20.624696 17.797565-37.331478 39.735652-37.331478" fill="#FFFFFF" p-id="3512"></path><path d="M289.825391 603.080348c0 15.949913 11.887304 28.605217 26.201044 28.605217 14.302609 0 26.201043-12.655304 26.201043-28.605217 0-4.051478-0.77913-7.980522-2.270608-11.609044l-0.523131-1.669565a34.960696 34.960696 0 0 1-1.113043-7.880348c0-13.879652 10.818783-25.399652 24.531478-25.399652l89.655652 0.044522h11.130435v99.940174c0 1.881043 1.179826 3.127652 2.270609 3.127652a4.552348 4.552348 0 0 0 1.424695-0.434087c7.501913-2.448696 13.534609-3.717565 18.476522-3.717565C512.712348 655.471304 534.26087 678.4 534.26087 706.337391s-21.537391 50.854957-48.461913 50.854957a46.937043 46.937043 0 0 1-19.17774-4.185044c-1.814261-0.189217-2.982957 1.101913-2.982956 3.617392V857.043478H214.405565C188.126609 857.043478 166.956522 834.515478 166.956522 807.257043V556.877913l11.097043-0.044522 91.12487-0.300521c2.137043 0.077913 3.59513 0.189217 4.908522 0.445217 11.575652 2.337391 19.845565 12.833391 19.845565 24.932174a26.201043 26.201043 0 0 1-2.092522 10.217739 30.586435 30.586435 0 0 0-2.014609 10.952348z m71.101218-19.122087c2.337391 6.032696 3.561739 12.499478 3.561739 19.122087 0 27.937391-21.537391 50.866087-48.461913 50.866087-26.935652 0-48.461913-22.928696-48.461913-50.866087 0-6.522435 1.190957-12.911304 3.762087-19.589565a5.409391 5.409391 0 0 0 0.345043-1.569392c0-1.669565-0.968348-2.905043-1.958956-3.116521 0.155826 0.033391-26.679652 0.111304-80.495305 0.256v228.196173C189.217391 822.51687 200.737391 834.782609 214.405565 834.782609h226.971826v-78.157913c0-14.369391 10.640696-26.067478 24.531479-26.067479 2.05913 0 4.073739 0.278261 7.012173 1.101913 2.159304 0.77913 3.08313 1.135304 3.272348 1.26887 3.06087 1.313391 6.288696 2.003478 9.605566 2.003478 14.313739 0 26.201043-12.655304 26.201043-28.605217 0-15.938783-11.887304-28.582957-26.201043-28.582957-2.114783 0-6.088348 0.834783-10.72974 2.315131a23.81913 23.81913 0 0 1-9.160347 1.836522c-13.712696 0-24.531478-11.52-24.531479-25.388522v-77.690435L362.852174 578.782609c-1.101913 0-2.281739 1.257739-2.281739 3.138782 0 0.155826 0.111304 0.890435 0.356174 2.03687z" fill="#005CB9" p-id="3513"></path><path d="M421.12 401.853217c-15.916522 0-28.627478 12.154435-28.627478 26.902261 0 14.747826 12.710957 26.913391 28.627478 26.913392a30.052174 30.052174 0 0 0 11.575652-2.29287l1.669565-0.556522c3.116522-0.734609 5.676522-1.135304 7.936-1.135304 13.935304 0 25.410783 10.985739 25.410783 24.787478l-0.044522 91.369739v11.130435h-100.006956c-1.847652 0-3.149913 1.235478-3.149913 2.526609 0 0.233739 0.044522 0.478609 0.456348 1.569391 2.448696 7.613217 3.706435 13.712696 3.706434 18.699131 0 27.269565-22.895304 49.16313-50.888348 49.16313-28.004174 0-50.888348-21.904696-50.888347-49.16313 0-6.455652 1.302261-12.766609 4.151652-19.366957 0.222609-2.203826-1.113043-3.439304-3.595131-3.439304H166.956522V325.209043c0-26.61287 22.494609-48.13913 49.819826-48.13913H467.366957l0.033391 11.085913 0.311652 92.850087a31.532522 31.532522 0 0 1-0.445217 4.941913c-2.31513 11.686957-12.8 20.090435-24.965566 20.090435a25.956174 25.956174 0 0 1-10.273391-2.148174c-3.450435-1.335652-7.123478-2.03687-10.907826-2.03687z m0 76.076522c-27.993043 0-50.888348-21.904696-50.888348-49.174261s22.895304-49.16313 50.888348-49.16313c6.566957 0 12.966957 1.224348 19.667478 3.85113a5.12 5.12 0 0 0 1.513739 0.333913c1.636174 0 2.893913-1.001739 3.116522-2.137043-0.044522 0.211478 0-0.434087 0.033391-1.001739l-0.26713-81.307826H216.776348c-15.248696 0-27.558957 11.78713-27.558957 25.87826v231.490783h78.246957c14.402783 0 26.067478 10.807652 26.067478 24.798609 0 2.05913-0.278261 4.073739-1.079652 7.012174-0.77913 2.181565-1.135304 3.116522-1.257739 3.305739-1.335652 3.161043-2.03687 6.511304-2.03687 9.950609 0 14.747826 12.710957 26.902261 28.627478 26.90226 15.916522 0 28.627478-12.154435 28.627479-26.90226 0-2.214957-0.845913-6.299826-2.337392-11.097044a24.208696 24.208696 0 0 1-1.825391-9.171478c0-13.801739 11.486609-24.798609 25.410783-24.798609h77.757217l0.033391-80.228174c0-1.28-1.302261-2.526609-3.149913-2.526609-0.133565 0-0.857043 0.111304-1.981217 0.356174a52.324174 52.324174 0 0 1-19.2 3.628522z" fill="#005CB9" p-id="3514"></path><path d="M714.406957 461.289739c7.958261-20.736-1.491478-43.631304-21.103305-51.166609-19.611826-7.535304-41.961739 3.172174-49.92 23.897044a42.028522 42.028522 0 0 0-2.804869 16.083478l-0.155826 0.100174c-0.01113 1.736348-0.333913 3.506087-1.00174 5.231304-2.849391 7.457391-10.874435 11.297391-17.92 8.592696a12.855652 12.855652 0 0 1-1.024-0.456348l-0.066782 0.033392-84.190609-32.356174 31.766261-82.754783-0.033391-0.055652a19.033043 19.033043 0 0 0 0.478608-1.090783c2.860522-7.457391-0.534261-15.671652-7.568695-18.376348-1.647304-0.634435-3.33913-0.890435-5.008696-0.845913l-0.089043-0.155826a36.151652 36.151652 0 0 1-15.33774-2.337391c-19.611826-7.524174-29.061565-30.430609-21.114434-51.155478 7.958261-20.72487 30.308174-31.432348 49.92-23.897044a36.118261 36.118261 0 0 1 13.245217 8.837565c0.333913 0.345043 0.656696 0.690087 0.968348 1.046261l0.222609-0.077913c0.890435 0.634435 1.847652 1.179826 2.893913 1.580522 7.056696 2.704696 15.081739-1.135304 17.93113-8.570435l0.211478-0.623304 0.033392-0.011131 32.389565-84.368695 226.504348 86.950956c19.010783 7.301565 28.249043 29.696 20.535652 49.786435L797.384348 531.2l-86.383305-32.823652-0.01113-0.033391c-0.200348-0.066783-0.389565-0.111304-0.589913-0.189218-7.034435-2.704696-10.429217-10.930087-7.568696-18.365217a15.193043 15.193043 0 0 1 3.561739-5.398261c3.33913-3.717565 6.099478-8.114087 8.013914-13.100522z" fill="#A6D2FF" p-id="3515"></path><path d="M689.307826 420.507826c-13.734957-5.275826-29.718261 2.393043-35.528348 17.497044a30.898087 30.898087 0 0 0-2.070261 11.831652l-0.100174 1.758608a35.105391 35.105391 0 0 1-1.780869 7.835827c-5.019826 13.056-19.400348 19.945739-32.311652 14.981565l-85.281392-32.779131-10.384695-3.995826 36.185043-94.274782c0.712348-1.836522 0-3.550609-1.168695-4.006957a4.697043 4.697043 0 0 0-1.602783-0.111304c-8.002783-0.434087-14.169043-1.424696-18.832696-3.216696-25.488696-9.783652-37.62087-39.201391-27.503304-65.536 10.106435-26.345739 38.811826-40.091826 64.300522-30.308174 6.043826 2.31513 11.464348 5.821217 16.617739 10.885565 1.892174 0.968348 3.561739 0.133565 4.496696-2.304l36.37426-94.74226 236.900174 90.935652c24.876522 9.549913 36.808348 38.455652 26.935652 64.155826l-90.746434 236.432695-10.373566-3.940173-86.79513-32.990609a31.276522 31.276522 0 0 1-4.463304-2.203826c-10.084174-6.355478-14.113391-19.233391-9.739131-30.619826a26.278957 26.278957 0 0 1 5.676522-8.859826c2.526609-2.793739 4.530087-6.043826 5.89913-9.638957 5.810087-15.11513-0.957217-31.49913-14.692173-36.786087z m-56.32 9.527652c10.128696-26.345739 38.822957-40.091826 64.311652-30.308174 25.488696 9.794783 37.62087 39.201391 27.503305 65.547131a53.704348 53.704348 0 0 1-10.674087 17.107478 5.531826 5.531826 0 0 0-0.912696 1.391304c-0.623304 1.613913-0.122435 3.216696 0.845913 3.81774-0.122435-0.077913 25.510957 9.683478 76.911304 29.273043l82.810435-215.718957c5.542957-14.469565-1.001739-30.363826-14.135652-35.405913l-216.119652-82.95513-28.393739 73.961739c-5.197913 13.523478-19.478261 20.635826-32.545392 15.616a25.09913 25.09913 0 0 1-6.199652-3.550609 31.833043 31.833043 0 0 1-2.626782-2.381913 24.987826 24.987826 0 0 0-8.514783-5.453913c-13.746087-5.286957-29.740522 2.370783-35.539478 17.485913-5.798957 15.11513 0.957217 31.510261 14.703304 36.786087 2.048 0.77913 6.166261 1.446957 11.163826 1.747479 3.149913-0.077913 6.288696 0.445217 9.271652 1.580521 12.911304 4.964174 18.988522 19.70087 13.979826 32.75687l-28.226782 73.516522 74.896695 28.783304c1.168696 0.445217 2.838261-0.345043 3.539479-2.181565 0.066783-0.144696 0.222609-0.890435 0.400695-2.070261a53.192348 53.192348 0 0 1 3.56174-19.344696z" fill="#005CB9" p-id="3516"></path></svg>