<svg t="1712503505463" class="icon" viewBox="0 0 1024 1024" version="1.1" xmlns="http://www.w3.org/2000/svg" p-id="1451" width="200" height="200"><path d="M511.655 64.267c-247.197 0-447.589 200.392-447.589 447.589s200.392 447.589 447.59 447.589 447.588-200.392 447.588-447.59S758.851 64.268 511.655 64.268z m191.012 643.566c0 0.79-0.075 1.56-0.18 2.321v16.05c0 11.542-9.357 20.9-20.9 20.9H341.722c-10.582 0-19.305-7.873-20.687-18.077a15.404 15.404 0 0 1-0.393-3.421V390.217c0-8.788 7.404-15.912 16.538-15.912h25.622c9.134 0 16.54 7.124 16.54 15.912v298.188h264.625v-296.81c0-9.55 8.046-17.29 17.972-17.29h22.755c9.925 0 17.973 7.74 17.973 17.29v316.238zM441.127 645.5V412.228c0-11.015 5.822-19.944 13.005-19.944h12.301c7.182 0 13.004 8.929 13.004 19.944V645.5c0 11.013-5.822 19.942-13.004 19.942h-12.301c-7.183 0-13.004-8.929-13.004-19.942z m102.744 0V412.228c0-11.015 5.821-19.944 13.004-19.944h12.301c7.183 0 13.004 8.929 13.004 19.944V645.5c0 11.013-5.822 19.942-13.004 19.942h-12.301c-7.183 0-13.004-8.929-13.004-19.942z m188.132-302.445c0 11.681-9.469 21.15-21.15 21.15H312.457c-11.68 0-21.15-9.469-21.15-21.15v-16.4c0-11.681 9.47-21.149 21.15-21.149h155.177v-11.64c0-9.531 7.725-17.258 17.259-17.258h53.526c9.53 0 17.259 7.727 17.259 17.259v11.639h155.176c11.681 0 21.15 9.468 21.15 21.15v16.4z" fill="#FF4C4C" p-id="1452"></path></svg>